<?xml version="1.0" standalone="no"?><svg xmlns="http://www.w3.org/2000/svg" viewBox="0 0 1440 320"><path fill="#7342d6" fill-opacity="1" d="M0,96L40,101.3C80,107,160,117,240,144C320,171,400,213,480,224C560,235,640,213,720,208C800,203,880,213,960,229.3C1040,245,1120,267,1200,266.7C1280,267,1360,245,1400,234.7L1440,224L1440,320L1400,320C1360,320,1280,320,1200,320C1120,320,1040,320,960,320C880,320,800,320,720,320C640,320,560,320,480,320C400,320,320,320,240,320C160,320,80,320,40,320L0,320Z"></path></svg>